<svg width="890" height="890" viewBox="0 0 890 890" fill="none" xmlns="http://www.w3.org/2000/svg">
<rect x="27.8125" y="27.8125" width="834.375" height="834.375" rx="194.688" fill="black"/>
<rect x="27.8125" y="27.8125" width="834.375" height="834.375" rx="194.688" stroke="white" stroke-width="55.625"/>
<g clip-path="url(#clip0_2006_316)">
<path fill-rule="evenodd" clip-rule="evenodd" d="M570.666 639.548C566.564 629.93 565.59 623.371 563.968 613.636C578.454 597.482 591.526 580.447 603.184 562.554C616.626 558.011 632.642 552.403 656.051 540.397C637.625 581.096 607.842 615.467 570.666 639.548ZM381.054 667.639C405.135 654.706 424.859 639.989 446.669 623.626C470.124 629.49 494.854 632.781 520.696 633.893L520.72 634.055C522.643 644.138 525.471 652.667 529.11 660.779C483.057 678.787 432.183 682.333 381.054 667.639ZM213.252 444.699L242.757 472.905C238.26 497.844 237.009 520.859 237.333 547.396C222.06 516.478 213.229 481.805 213.229 445L213.252 444.699ZM476.799 215.663L459.231 255.921C409.655 268.901 380.799 281.996 338.385 304.755L272.029 291.174C321.35 235.804 395.726 204.491 476.799 215.663ZM434.988 488.434C409.887 471.607 390.001 454.503 354.656 425.23L367.31 342.349C400.824 322.695 426.783 313.632 471.074 299.494C494.228 315.417 517.058 332.591 539.076 350.855L539.029 351.388C535.831 391.693 529.295 422.449 519.445 455.569C491.725 467.714 463.588 478.699 434.988 488.434ZM324.711 642.816C311.848 634.959 299.865 625.944 288.81 615.838C282.876 571.315 280.443 525.679 288.74 479.905L288.763 479.812L328.535 462.545C356.603 488.642 382.909 508.992 413.734 530.408L415.194 588.93C384.531 613.173 360.288 629.211 324.711 642.816ZM674.87 473.369C651.693 490.103 633.708 501.761 604.76 512.376L564.571 465.859C575.023 432.276 581.675 396.328 584.642 356.301L642.561 324.294C669.146 367.681 681.522 418.532 674.87 473.369ZM445 166.875C291.498 166.875 166.875 291.498 166.875 445C166.875 598.502 291.498 723.125 445 723.125C598.502 723.125 723.125 598.502 723.125 445C723.125 291.498 598.502 166.875 445 166.875Z" fill="white"/>
</g>
<defs>
<clipPath id="clip0_2006_316">
<rect width="556.25" height="556.25" fill="white" transform="translate(166.875 166.875)"/>
</clipPath>
</defs>
</svg>
